<svg width="125" height="24" viewBox="0 0 125 24" fill="none" xmlns="http://www.w3.org/2000/svg">
<path d="M11 21.73C11.304 21.9056 11.6489 21.998 12 21.998C12.3511 21.998 12.696 21.9056 13 21.73L20 17.73C20.3037 17.5547 20.556 17.3025 20.7315 16.9989C20.9071 16.6952 20.9996 16.3508 21 16V8.00002C20.9996 7.6493 20.9071 7.30483 20.7315 7.00119C20.556 6.69754 20.3037 6.44539 20 6.27002L13 2.27002C12.696 2.09449 12.3511 2.00208 12 2.00208C11.6489 2.00208 11.304 2.09449 11 2.27002L4 6.27002C3.69626 6.44539 3.44398 6.69754 3.26846 7.00119C3.09294 7.30483 3.00036 7.6493 3 8.00002V16C3.00036 16.3508 3.09294 16.6952 3.26846 16.9989C3.44398 17.3025 3.69626 17.5547 4 17.73L11 21.73Z" stroke="#1E1E1E" stroke-width="2" stroke-linecap="round" stroke-linejoin="round"/>
<path d="M12 22V12" stroke="#1E1E1E" stroke-width="2" stroke-linecap="round" stroke-linejoin="round"/>
<path d="M3.29 7L12 12L20.71 7" stroke="#1E1E1E" stroke-width="2" stroke-linecap="round" stroke-linejoin="round"/>
<path d="M7.5 4.27002L16.5 9.42002" stroke="#1E1E1E" stroke-width="2" stroke-linecap="round" stroke-linejoin="round"/>
<path d="M27.2912 19V5.90909H35.6776V7.89702H29.6626V11.451H35.1023V13.4389H29.6626V19H27.2912ZM40.4732 19.1982C39.851 19.1982 39.2907 19.0874 38.7921 18.8658C38.2978 18.6399 37.9057 18.3075 37.6159 17.8686C37.3304 17.4297 37.1877 16.8885 37.1877 16.245C37.1877 15.6911 37.29 15.233 37.4945 14.8707C37.699 14.5085 37.9782 14.2188 38.3319 14.0014C38.6855 13.7841 39.084 13.62 39.5272 13.5092C39.9746 13.3942 40.437 13.3111 40.9142 13.2599C41.4895 13.2003 41.9561 13.147 42.3141 13.1001C42.6721 13.049 42.932 12.9723 43.0939 12.87C43.2601 12.7635 43.3432 12.5994 43.3432 12.3778V12.3395C43.3432 11.858 43.2005 11.4851 42.915 11.2209C42.6294 10.9567 42.2182 10.8246 41.6813 10.8246C41.1145 10.8246 40.665 10.9482 40.3326 11.1953C40.0044 11.4425 39.7828 11.7344 39.6678 12.071L37.5073 11.7642C37.6777 11.1676 37.959 10.669 38.351 10.2685C38.7431 9.86364 39.2225 9.56108 39.7892 9.3608C40.356 9.15625 40.9824 9.05398 41.6685 9.05398C42.1415 9.05398 42.6124 9.10938 43.0811 9.22017C43.5499 9.33097 43.9782 9.5142 44.3659 9.76989C44.7537 10.0213 45.0648 10.3643 45.2992 10.799C45.5378 11.2337 45.6571 11.777 45.6571 12.429V19H43.4327V17.6513H43.356C43.2154 17.924 43.0172 18.1797 42.7615 18.4183C42.5101 18.6527 42.1926 18.8423 41.8091 18.9872C41.4299 19.1278 40.9846 19.1982 40.4732 19.1982ZM41.074 17.4979C41.5385 17.4979 41.9412 17.4062 42.2821 17.223C42.623 17.0355 42.8851 16.7884 43.0684 16.4815C43.2559 16.1747 43.3496 15.8402 43.3496 15.478V14.321C43.2772 14.3807 43.1536 14.4361 42.9789 14.4872C42.8084 14.5384 42.6167 14.5831 42.4036 14.6214C42.1905 14.6598 41.9796 14.6939 41.7708 14.7237C41.562 14.7536 41.3809 14.7791 41.2275 14.8004C40.8823 14.8473 40.5733 14.924 40.3006 15.0305C40.0279 15.1371 39.8127 15.2862 39.655 15.478C39.4973 15.6655 39.4185 15.9084 39.4185 16.2067C39.4185 16.6328 39.574 16.9545 39.8851 17.1719C40.1962 17.3892 40.5925 17.4979 41.074 17.4979ZM55.7438 11.777L53.6344 12.0071C53.5748 11.794 53.4703 11.5938 53.3212 11.4062C53.1763 11.2188 52.9803 11.0675 52.7331 10.9524C52.486 10.8374 52.1834 10.7798 51.8255 10.7798C51.3439 10.7798 50.9391 10.8842 50.611 11.093C50.2871 11.3018 50.1273 11.5724 50.1316 11.9048C50.1273 12.1903 50.2317 12.4226 50.4448 12.6016C50.6621 12.7805 51.0201 12.9276 51.5186 13.0426L53.1934 13.4006C54.1223 13.6009 54.8127 13.9183 55.2644 14.353C55.7203 14.7876 55.9505 15.3565 55.9547 16.0597C55.9505 16.6776 55.7694 17.223 55.4114 17.696C55.0577 18.1648 54.5655 18.5312 53.9348 18.7955C53.3042 19.0597 52.5797 19.1918 51.7615 19.1918C50.5598 19.1918 49.5925 18.9403 48.8596 18.4375C48.1266 17.9304 47.6898 17.2251 47.5492 16.3217L49.8056 16.1044C49.9078 16.5476 50.1252 16.8821 50.4576 17.108C50.79 17.3338 51.2225 17.4467 51.7551 17.4467C52.3049 17.4467 52.7459 17.3338 53.0783 17.108C53.415 16.8821 53.5833 16.603 53.5833 16.2706C53.5833 15.9893 53.4746 15.7571 53.2573 15.5739C53.0442 15.3906 52.7118 15.25 52.2601 15.152L50.5854 14.8004C49.6436 14.6044 48.9469 14.2741 48.4952 13.8097C48.0435 13.3409 47.8198 12.7486 47.824 12.0327C47.8198 11.4276 47.9838 10.9034 48.3162 10.4602C48.6529 10.0128 49.1195 9.66761 49.7161 9.42472C50.3169 9.17756 51.0094 9.05398 51.7935 9.05398C52.9441 9.05398 53.8496 9.29901 54.5101 9.78906C55.1749 10.2791 55.5861 10.9418 55.7438 11.777ZM62.7654 9.18182V10.9716H57.1213V9.18182H62.7654ZM58.5147 6.82955H60.8287V16.0469C60.8287 16.358 60.8755 16.5966 60.9693 16.7628C61.0673 16.9247 61.1951 17.0355 61.3528 17.0952C61.5105 17.1548 61.6852 17.1847 61.877 17.1847C62.0218 17.1847 62.1539 17.174 62.2733 17.1527C62.3968 17.1314 62.4906 17.1122 62.5545 17.0952L62.9444 18.9041C62.8208 18.9467 62.644 18.9936 62.4139 19.0447C62.188 19.0959 61.911 19.1257 61.5829 19.1342C61.0034 19.1513 60.4814 19.0639 60.0169 18.8722C59.5524 18.6761 59.1838 18.3736 58.911 17.9645C58.6426 17.5554 58.5105 17.044 58.5147 16.4304V6.82955Z" fill="#1E1E1E"/>
<path d="M63.7418 19L63.9975 17.5234L72.3008 7.89702H65.5444L65.8768 5.90909H75.5671L75.3306 7.38565L67.0082 17.0121H73.7646L73.4322 19H63.7418ZM77.408 19H74.8768L81.6587 5.90909H84.5863L87.0281 19H84.4968L82.739 8.59375H82.6367L77.408 19ZM78.3413 13.8672H85.2447L84.9251 15.772H78.0217L78.3413 13.8672ZM88.7523 19L90.9256 5.90909H93.2971L92.3063 11.924H92.4661L98.5641 5.90909H101.46L95.432 11.7834L99.3311 19H96.4803L93.5272 13.3878L91.7757 15.1136L91.1238 19H88.7523ZM102.615 19H100.084L106.866 5.90909H109.793L112.235 19H109.704L107.946 8.59375H107.844L102.615 19ZM103.548 13.8672H110.452L110.132 15.772H103.229L103.548 13.8672ZM113.643 7.89702L113.975 5.90909H124.42L124.088 7.89702H120.041L118.2 19H115.848L117.689 7.89702H113.643Z" fill="#009688"/>
</svg>
